<?xml version="1.0" encoding="utf-8"?>
<!-- Generator: Adobe Illustrator 23.0.0, SVG Export Plug-In . SVG Version: 6.00 Build 0)  -->
<svg version="1.1" id="Layer_1" xmlns="http://www.w3.org/2000/svg" xmlns:xlink="http://www.w3.org/1999/xlink" x="0px" y="0px"
	 viewBox="0 0 427 70" style="enable-background:new 0 0 427 70;" xml:space="preserve">
<style type="text/css">
	.st0{fill:#FFFFFF;}
</style>
<g>
	<path class="st0" d="M24.95,27.68c0,3.27,0,3.8,3.27,3.8H33c6.54,0,6.76-6.99,8.28-6.99c0.53,0,1.37-0.15,1.44,1.9l0.53,13.53
		c0.08,0.99,0.53,3.72-1.29,3.72c-2.43,0-0.3-8.06-8.21-8.06h-5.62c-3.5,0-3.19,0.91-3.19,5.32v11.25c0,8.44,8.59,6.54,8.59,8.59
		c0,1.52-1.6,1.22-3.5,1.22c-2.89,0-5.7-0.3-9.04-0.3c-2.36,0-5.55,0.3-9.73,0.3c-0.99,0-1.44-0.38-1.44-0.84
		c0-3.5,5.78,0.61,5.78-8.66V16.89c0-6.84-8.59-4.41-8.59-7.45c0-0.68,0.61-1.29,1.67-1.29c3.12,0,8.59,0.3,20.22,0.3
		c5.4,0,10.64-0.3,17.33-0.3c0.99,0,1.52,0.76,1.52,1.44l0.3,7.52c0.08,0.99,0.46,3.5-1.29,3.5c-3.57,0,2.36-8.89-12.31-8.89
		c-9.2,0-9.5,0.08-9.5,5.32L24.95,27.68L24.95,27.68z"/>
	<path class="st0" d="M64.4,43.26c-1.29,0-2.89,0.3-4.64,5.32c-0.53,1.52-1.6,4.18-1.6,6c0,5.47,8.21,4.26,8.21,6.31
		c0,1.6-2.36,1.06-3.95,1.06c-2.43,0-4.71-0.3-7.14-0.3c-2.28,0-4.48,0.3-6.69,0.3c-1.06,0-2.28,0.15-2.28-0.84
		c0-1.75,3.88-1.29,5.78-5.55l20.6-45.98c0.53-1.22,0.91-2.66,1.9-2.66c0.68,0,0.84,0.15,1.82,2.43l20.52,46.51
		c2.43,5.4,6.54,2.43,6.54,4.94c0,1.29-0.68,1.14-2.74,1.14c-2.74,0-4.79-0.3-9.8-0.3c-3.34,0-6.16,0.3-8.36,0.3
		c-1.37,0-2.36,0.15-2.36-0.91c0-2.2,5.4-1.37,5.4-6c0-1.67-0.53-3.04-1.37-5.09c-2.51-5.93-2.89-6.69-4.86-6.69L64.4,43.26
		L64.4,43.26z M77.01,39.16c1.37,0,2.43,0.08,2.43-0.68c0-1.06-0.46-1.9-0.84-2.81l-6.23-13.76c-0.46-0.61-0.23-0.61-0.61-0.61
		c-0.15,0-0.46,0.08-0.84,0.91l-5.85,13.45c-0.38,0.91-0.84,1.75-0.84,2.81c0,0.76,1.06,0.68,2.43,0.68L77.01,39.16L77.01,39.16z"/>
	<path class="st0" d="M123.9,52.54c0,9.35,8.51,5.85,8.51,8.28c0,0.84-0.68,1.14-2.43,1.14c-2.81,0-5.62-0.3-11.55-0.3
		c-3.27,0-6.54,0.3-8.51,0.3c-0.68,0-0.84-0.53-0.84-0.91c0-2.66,5.47-0.68,5.47-7.9V16.67c0-6.92-8.59-4.79-8.59-7.45
		c0-1.29,1.9-1.06,2.58-1.06c2.96,0,5.93,0.3,8.59,0.3c2.74,0,5.47-0.3,9.8-0.3c2.28,0,2.66,0.15,2.66,1.06
		c0,2.58-5.7-0.15-5.7,7.07L123.9,52.54L123.9,52.54z"/>
	<path class="st0" d="M142.75,17.73c0-8.51-8.28-5.7-8.28-8.44c0-0.76,0.76-1.14,1.67-1.14c3.5,0,4.1,0.3,8.89,0.3
		c5.09,0,10.26-0.3,15.35-0.3c16.64,0,18.16,10.72,18.16,14.21c0,4.86-2.2,7.68-4.41,9.5c-2.2,1.75-4.41,2.43-4.41,3.19
		c0,0.46,6.46,11.48,11.93,21.05c0.68,1.21,2.13,1.21,2.74,1.21c0.76,0,1.52-0.46,2.28-0.46c0.68,0,1.14,0.46,1.14,1.06
		c0,2.36-5.02,4.03-8.06,4.03c-6,0-8.44-4.79-10.79-9.2l-6.38-12.01c-1.75-3.34-3.12-4.03-6.92-4.03c-4.03,0-3.57,0.53-3.57,3.19
		v13.15c0,8.13,7.52,5.02,7.52,7.75c0,0.68-0.61,1.14-2.36,1.14c-1.29,0-3.34-0.3-6.54-0.3c-4.1,0-7.9,0.3-11.7,0.3
		c-0.84,0-2.43,0.23-2.43-1.29c0-2.43,6.16,0.08,6.16-9.5L142.75,17.73L142.75,17.73z M152.1,31.33c0,1.9,2.81,1.9,5.09,1.9
		c11.55,0,12.01-4.26,12.01-8.74c0-7.45-4.26-13.07-11.93-13.07c-2.81,0-5.17,0-5.17,4.56L152.1,31.33L152.1,31.33z"/>
	<path class="st0" d="M206.59,27.68c0,3.27,0,3.8,3.27,3.8h4.79c6.54,0,6.77-6.99,8.29-6.99c0.53,0,1.37-0.15,1.44,1.9l0.53,13.53
		c0.07,0.99,0.53,3.72-1.29,3.72c-2.43,0-0.3-8.06-8.21-8.06h-5.62c-3.5,0-3.19,0.91-3.19,5.32v11.25c0,8.44,8.59,6.54,8.59,8.59
		c0,1.52-1.6,1.22-3.5,1.22c-2.89,0-5.7-0.3-9.04-0.3c-2.36,0-5.55,0.3-9.73,0.3c-0.99,0-1.44-0.38-1.44-0.84
		c0-3.5,5.78,0.61,5.78-8.66V16.89c0-6.84-8.59-4.41-8.59-7.45c0-0.68,0.61-1.29,1.67-1.29c3.12,0,8.59,0.3,20.22,0.3
		c5.4,0,10.64-0.3,17.33-0.3c0.99,0,1.52,0.76,1.52,1.44l0.3,7.52c0.08,0.99,0.45,3.5-1.29,3.5c-3.57,0,2.36-8.89-12.31-8.89
		c-9.2,0-9.5,0.08-9.5,5.32v10.64H206.59z"/>
	<path class="st0" d="M250.59,52.54c0,9.35,8.51,5.85,8.51,8.28c0,0.84-0.68,1.14-2.43,1.14c-2.81,0-5.62-0.3-11.55-0.3
		c-3.27,0-6.54,0.3-8.51,0.3c-0.68,0-0.84-0.53-0.84-0.91c0-2.66,5.47-0.68,5.47-7.9V16.67c0-6.92-8.59-4.79-8.59-7.45
		c0-1.29,1.9-1.06,2.59-1.06c2.96,0,5.93,0.3,8.59,0.3c2.73,0,5.47-0.3,9.8-0.3c2.28,0,2.66,0.15,2.66,1.06
		c0,2.58-5.7-0.15-5.7,7.07V52.54z"/>
	<path class="st0" d="M278.64,27.68c0,3.27,0,3.8,3.27,3.8h4.79c6.54,0,6.76-6.99,8.28-6.99c0.53,0,1.37-0.15,1.44,1.9l0.53,13.53
		c0.08,0.99,0.53,3.72-1.29,3.72c-2.43,0-0.3-8.06-8.21-8.06h-5.62c-3.5,0-3.19,0.91-3.19,5.32v9.73c0,4.71-0.3,7.45,5.17,7.45
		c18.85,0,17.78-9.96,20.67-9.96c0.3,0,0.84,0.23,0.84,1.67c0,5.93-4.48,12.16-10.72,12.16c-11.55,0-16.11-0.3-19.91-0.3
		c-2.36,0-5.55,0.3-9.73,0.3c-0.99,0-1.45-0.38-1.45-0.84c0-3.5,5.78,0.61,5.78-8.66V16.88c0-6.84-8.59-4.41-8.59-7.45
		c0-0.68,0.61-1.29,1.67-1.29c3.12,0,8.59,0.3,20.21,0.3c5.4,0,10.64-0.3,17.33-0.3c0.99,0,1.52,0.76,1.52,1.44l0.3,7.52
		c0.08,0.99,0.46,3.5-1.29,3.5c-3.57,0,2.36-8.89-12.31-8.89c-9.2,0-9.5,0.08-9.5,5.32v10.65H278.64z"/>
	<path class="st0" d="M325.22,50.64c0,4.71-0.3,7.45,5.17,7.45c18.85,0,17.78-9.96,20.67-9.96c0.3,0,0.84,0.23,0.84,1.67
		c0,5.93-4.48,12.16-10.72,12.16c-11.55,0-16.11-0.3-19.91-0.3c-2.36,0-5.55,0.3-9.73,0.3c-0.99,0-1.45-0.38-1.45-0.84
		c0-3.5,5.78,0.61,5.78-8.66V16.51c0-6.46-8.59-4.41-8.59-7.07c0-0.68,0.84-1.29,2.43-1.29c3.04,0,7.45,0.3,10.34,0.3
		c6.46,0,7.37-0.3,8.59-0.3c1.6,0,1.98,0.08,1.98,0.99c0,2.89-5.4,0.08-5.4,5.85V50.64z"/>
	<path class="st0" d="M362.08,17.42c0-7.75-8.13-5.24-8.13-8.06c0-0.76,0.84-1.22,1.37-1.22c1.44,0,2.96,0.3,10.49,0.3
		c3.95,0,7.83-0.3,11.78-0.3c10.18,0,32.3,1.22,32.3,25c0,21.96-19.84,28.8-27.97,28.8c-8.89,0-13.07-0.3-15.88-0.3
		c-2.36,0-4.63,0.3-6.99,0.3c-1.29,0-3.04,0.3-3.04-1.06c0-2.89,6.08,0,6.08-6.84L362.08,17.42L362.08,17.42z M371.43,53.53
		c0,5.02,5.62,5.55,8.59,5.55c11.86,0,20.29-7.75,20.29-23.48c0-7.22-3.72-24.55-22.72-24.55c-5.7,0-6.16,1.9-6.16,7.14V53.53z"/>
</g>
<g>
	<path class="st0" d="M416.3,9.97c2.46,0,4.42,2,4.42,4.5c0,2.54-1.96,4.52-4.44,4.52c-2.46,0-4.46-1.98-4.46-4.52
		c0-2.5,2-4.5,4.46-4.5H416.3z M416.28,10.67c-1.98,0-3.6,1.7-3.6,3.8c0,2.14,1.62,3.82,3.62,3.82c2,0.02,3.6-1.68,3.6-3.8
		s-1.6-3.82-3.6-3.82H416.28z M415.44,17.09h-0.8v-5.02c0.42-0.06,0.82-0.12,1.42-0.12c0.76,0,1.26,0.16,1.56,0.38
		s0.46,0.56,0.46,1.04c0,0.66-0.44,1.06-0.98,1.22v0.04c0.44,0.08,0.74,0.48,0.84,1.22c0.12,0.78,0.24,1.08,0.32,1.24h-0.84
		c-0.12-0.16-0.24-0.62-0.34-1.28c-0.12-0.64-0.44-0.88-1.08-0.88h-0.56V17.09z M415.44,14.31h0.58c0.66,0,1.22-0.24,1.22-0.86
		c0-0.44-0.32-0.88-1.22-0.88c-0.26,0-0.44,0.02-0.58,0.04V14.31z"/>
</g>
</svg>
